<svg width="30" height="30" viewBox="0 0 30 30" fill="none" xmlns="http://www.w3.org/2000/svg">
<g clip-path="url(#clip0_2007_1377)">
<path d="M8.75 0.5625H18.6426L27.6875 9.60742V27C27.6875 28.3462 26.5962 29.4375 25.25 29.4375H8.75C7.40381 29.4375 6.3125 28.3462 6.3125 27V3C6.3125 1.65381 7.40381 0.5625 8.75 0.5625Z" fill="white" stroke="#C8D2E1" stroke-width="1.125"/>
<path d="M18.5 0.75V7.5C18.5 8.74264 19.5074 9.75 20.75 9.75H27.5" stroke="#C8D2E1" stroke-width="1.125" stroke-linecap="round"/>
</g>
<rect x="2" y="14.25" width="18.375" height="12" rx="1.5" fill="#DC092E"/>
<path d="M14.4734 22.875V17.4205H18.0849V18.3713H15.6267V19.671H17.8452V20.6218H15.6267V22.875H14.4734Z" fill="white"/>
<path d="M11.1011 22.875H9.16748V17.4205H11.1171C11.6657 17.4205 12.138 17.5297 12.534 17.7481C12.9299 17.9647 13.2344 18.2763 13.4475 18.6829C13.6623 19.0895 13.7698 19.576 13.7698 20.1424C13.7698 20.7106 13.6623 21.1989 13.4475 21.6073C13.2344 22.0156 12.9281 22.329 12.5286 22.5474C12.1309 22.7658 11.6551 22.875 11.1011 22.875ZM10.3207 21.8869H11.0531C11.394 21.8869 11.6808 21.8265 11.9134 21.7058C12.1478 21.5833 12.3236 21.3942 12.4407 21.1385C12.5597 20.8811 12.6192 20.549 12.6192 20.1424C12.6192 19.7394 12.5597 19.41 12.4407 19.1543C12.3236 18.8986 12.1487 18.7104 11.9161 18.5897C11.6835 18.4689 11.3967 18.4086 11.0558 18.4086H10.3207V21.8869Z" fill="white"/>
<path d="M4.46121 22.875V17.4205H6.6132C7.02691 17.4205 7.37936 17.4995 7.67055 17.6575C7.96174 17.8138 8.18369 18.0313 8.33639 18.31C8.49086 18.587 8.5681 18.9066 8.5681 19.2688C8.5681 19.6311 8.48998 19.9507 8.33373 20.2276C8.17748 20.5046 7.95109 20.7204 7.65457 20.8748C7.35983 21.0293 7.00294 21.1066 6.5839 21.1066H5.21228V20.1824H6.39747C6.61942 20.1824 6.8023 20.1442 6.94612 20.0678C7.09172 19.9897 7.20003 19.8823 7.27105 19.7456C7.34385 19.6071 7.38025 19.4482 7.38025 19.2688C7.38025 19.0877 7.34385 18.9297 7.27105 18.7948C7.20003 18.658 7.09172 18.5524 6.94612 18.4778C6.80052 18.4015 6.61586 18.3633 6.39214 18.3633H5.61444V22.875H4.46121Z" fill="white"/>
<defs>
<clipPath id="clip0_2007_1377">
<rect width="22.5" height="30" fill="white" transform="translate(5.75)"/>
</clipPath>
</defs>
</svg>
